<?xml version='1.0' encoding='utf-8'?>
<mxfile host="app.diagrams.net">
  <diagram name="BMC_Input MCP Architecture" id="mcp">
    <mxGraphModel dx="1600" dy="900" grid="1" gridSize="10">
      <root>
        <mxCell id="0" />
        <mxCell id="1" parent="0" />
        <mxCell id="title" value="BMC_INPUT - MCP Architecture" style="rounded=0;whiteSpace=wrap;html=1;fillColor=#232F3E;fontColor=#FFFFFF;fontSize=18;fontStyle=1;" vertex="1" parent="1">
          <mxGeometry x="50" y="20" width="1200" height="50" as="geometry" />
        </mxCell>
        <mxCell id="aws_cloud" value="AWS Cloud - BMC Infrastructure" style="rounded=1;whiteSpace=wrap;html=1;fillColor=#E3F2FD;strokeColor=#1976D2;fontSize=14;fontStyle=1;verticalAlign=top;" vertex="1" parent="1">
          <mxGeometry x="100" y="100" width="1100" height="600" as="geometry" />
        </mxCell>
        <mxCell id="ms_0" value="Certificate Service\nGeneraciÃ³n de certificados PDF..." style="rounded=1;whiteSpace=wrap;html=1;fillColor=#D05C17;fontColor=#FFFFFF;fontSize=10;" vertex="1" parent="1">
          <mxGeometry x="200" y="200" width="150" height="80" as="geometry" />
        </mxCell>
        <mxCell id="aws_0" value="Redis Cache\nELASTICACHE" style="rounded=1;whiteSpace=wrap;html=1;fillColor=#116D5B;fontColor=#FFFFFF;fontSize=10;" vertex="1" parent="1">
          <mxGeometry x="500" y="300" width="120" height="60" as="geometry" />
        </mxCell>
        <mxCell id="aws_1" value="S3 Documents\nS3" style="rounded=1;whiteSpace=wrap;html=1;fillColor=#116D5B;fontColor=#FFFFFF;fontSize=10;" vertex="1" parent="1">
          <mxGeometry x="650" y="300" width="120" height="60" as="geometry" />
        </mxCell>
      </root>
    </mxGraphModel>
  </diagram>
</mxfile>